#
#
#

mtllib ITEM_Key.mtl


#
# key2 Mesh Mesh Mesh Mesh Mesh Mesh
#
g key2 Mesh Mesh Mesh Mesh Mesh Mesh


#
# key2 Mesh Mesh Mesh Mesh Mesh Mesh_key2 Mesh Mesh Mesh Mesh Mesh_key2 Mesh Mesh Mesh Mesh_key2 Mesh Mesh Mesh_key2 Mesh Mesh_key2 Mesh_Material__2
#
usemtl key2 Mesh Mesh Mesh Mesh Mesh Mesh_key2 Mesh Mesh Mesh Mesh Mesh_key2 Mesh Mesh Mesh Mesh_key2 Mesh Mesh Mesh_key2 Mesh Mesh_key2 Mesh_Material__2

v -0.151933 -0.436372 0.543294
v -0.190901 -0.488520 0.526042
v -0.151413 -0.494505 0.538167
v -0.191420 -0.430387 0.531170
v -0.143080 -0.397611 0.569807
v -0.205695 -0.507189 0.566069
v -0.147426 -0.507189 0.583961
v -0.201349 -0.397611 0.551915
v 0.173730 -0.386946 -0.614997
v -0.077012 -0.399853 0.228942
v 0.203006 -0.396153 -0.606007
v 0.228536 -0.188816 -0.760562
v 0.213431 -0.190826 -0.609778
v 0.257811 -0.191295 -0.751572
v 0.184155 -0.188347 -0.618768
v 0.250445 -0.377628 -0.837682
v 0.249769 -0.385886 -0.755041
v 0.250474 -0.380107 -0.837673
v 0.220493 -0.383407 -0.764030
v 0.222153 -0.405634 -0.846369
v -0.108701 -0.427766 0.212584
v 0.220429 -0.447720 -0.846898
v -0.110424 -0.469853 0.212054
v 0.250441 -0.479232 -0.837683
v 0.218692 -0.481047 -0.773004
v 0.169743 -0.485237 -0.616332
v -0.075182 -0.503844 0.222876
v 0.199020 -0.480988 -0.607342
v 0.238907 -0.681012 -0.764167
v 0.169661 -0.689032 -0.645729
v 0.209632 -0.678534 -0.773156
v 0.198937 -0.691511 -0.636739
v 0.250468 -0.481711 -0.837675
v 0.247969 -0.483527 -0.764015
v 0.291108 -0.453705 -0.825196
v -0.039745 -0.475837 0.233757
v 0.292832 -0.411619 -0.824667
v -0.038020 -0.433751 0.234286
v -0.098229 -0.342238 0.297790
v -0.173468 -0.403376 0.274687
v -0.177232 -0.495252 0.273531
v -0.098175 -0.569457 0.297806
v -0.022936 -0.508318 0.320908
v -0.019173 -0.416441 0.322064
v -0.134836 -0.404384 0.371757
v -0.105558 -0.406863 0.380747
v -0.156756 -0.432390 0.365026
v -0.158480 -0.474478 0.364497
v -0.138998 -0.505990 0.370479
v -0.109721 -0.508468 0.379468
v -0.087801 -0.480462 0.386199
v -0.086075 -0.438375 0.386729
v -0.124750 -0.370391 0.458194
v -0.153884 -0.370391 0.449248
v -0.212111 -0.432390 0.417269
v -0.215632 -0.474478 0.416188
v -0.151348 -0.551373 0.440989
v -0.122214 -0.551373 0.449934
v -0.071302 -0.480462 0.460505
v -0.067781 -0.438375 0.461586
v -0.128363 -0.396300 0.521876
v -0.186632 -0.396300 0.503985
v -0.204662 -0.431546 0.498849
v -0.206697 -0.473633 0.498224
v -0.193216 -0.511489 0.525427
v -0.134947 -0.511489 0.543318
v -0.123251 -0.479617 0.523847
v -0.121215 -0.437531 0.524472
v -0.214286 -0.307926 0.801707
v -0.236476 -0.336729 0.822056
v -0.219509 -0.366656 0.818718
v -0.195485 -0.086256 0.688559
v -0.173993 -0.182249 0.670482
v -0.230793 -0.263473 0.803550
v -0.244379 -0.436254 0.847797
v -0.222692 -0.475324 0.829084
v -0.239955 -0.520481 0.833387
v -0.220966 -0.554281 0.823462
v -0.215503 -0.748490 0.753753
v -0.182747 -0.822875 0.647074
v -0.182660 -0.720092 0.698710
v -0.236063 -0.613238 0.820713
v -0.144536 -0.559931 0.574549
v -0.181307 -0.563012 0.642387
v -0.172385 -0.591331 0.613329
v -0.126644 -0.578958 0.516277
v -0.122612 -0.735130 0.451229
v -0.122940 -0.688314 0.504214
v -0.147745 -0.806447 0.533081
v -0.144776 -0.757576 0.575331
v -0.197511 -0.548727 0.747074
v -0.205688 -0.514639 0.721789
v -0.197064 -0.480562 0.745619
v -0.204686 -0.435666 0.718526
v -0.194106 -0.395123 0.735984
v -0.200118 -0.363874 0.703647
v -0.190137 -0.331827 0.723060
v -0.148672 -0.145083 0.588019
v -0.166527 -0.063102 0.594252
v -0.122379 -0.131448 0.450472
v -0.116854 -0.193719 0.484394
v -0.114670 -0.299628 0.477282
v -0.110878 -0.254847 0.413014
v -0.178639 -0.339244 0.633696
v -0.134270 -0.369443 0.541114
v -0.169862 -0.319968 0.605112
v -0.207773 -0.339244 0.624751
v -0.198995 -0.319968 0.596166
v -0.140011 -0.254847 0.404069
v -0.151513 -0.131448 0.441527
v -0.195661 -0.063102 0.585306
v -0.224618 -0.086256 0.679614
v -0.259927 -0.263473 0.794604
v -0.272555 -0.307926 0.783815
v -0.265609 -0.336729 0.813110
v -0.277778 -0.366656 0.800826
v -0.273513 -0.436254 0.838851
v -0.280961 -0.475324 0.811193
v -0.269088 -0.520481 0.824441
v -0.279235 -0.554281 0.805571
v -0.265197 -0.613238 0.811767
v -0.244636 -0.748490 0.744808
v -0.211880 -0.822875 0.638128
v -0.176878 -0.806447 0.524135
v -0.151745 -0.735130 0.442284
v -0.210441 -0.563012 0.633441
v -0.201519 -0.591331 0.604383
v -0.202805 -0.559931 0.556657
v -0.184913 -0.578958 0.498386
v -0.181209 -0.688314 0.486322
v -0.203045 -0.757576 0.557439
v -0.240929 -0.720092 0.680818
v -0.255780 -0.548727 0.729183
v -0.234822 -0.514639 0.712844
v -0.255333 -0.480562 0.727728
v -0.233820 -0.435666 0.709580
v -0.252375 -0.395123 0.718093
v -0.229251 -0.363874 0.694702
v -0.248406 -0.331827 0.705168
v -0.232262 -0.182249 0.652590
v -0.206941 -0.145083 0.570127
v -0.175123 -0.193719 0.466502
v -0.172939 -0.299628 0.459390
v -0.192539 -0.369443 0.523222
vn 0.204401 -0.198130 0.958627
vn -0.722978 0.189189 0.664463
vn 0.275285 0.522397 0.807044
vn -0.784044 -0.150816 0.602104
vn 0.299278 -0.553727 0.777058
vn -0.636706 0.738264 0.222647
vn 0.308116 0.793681 0.524533
vn -0.715295 -0.567287 0.408092
vn -0.506167 0.831227 0.229906
vn 0.121195 0.961490 -0.246674
vn 0.539561 0.591954 0.598719
vn -0.492261 0.705224 -0.510234
vn 0.576984 0.630907 0.518697
vn 0.656574 0.390023 -0.645595
vn -0.219522 0.469329 0.855301
vn 0.322966 0.807999 -0.492778
vn 0.996862 0.075878 -0.022559
vn 0.645542 0.215255 -0.732763
vn -0.504922 0.429181 -0.748904
vn -0.488270 0.516816 -0.703202
vn -0.726603 0.434078 -0.532564
vn -0.795112 -0.347664 -0.496918
vn -0.775005 -0.328538 -0.539842
vn -0.076477 -0.152666 -0.985314
vn -0.840759 -0.039248 -0.539986
vn -0.863339 -0.463932 0.198525
vn 0.120315 -0.950406 -0.286798
vn 0.837521 -0.128335 0.531120
vn 0.079818 -0.863456 -0.498069
vn -0.750263 -0.659263 0.049768
vn -0.166562 -0.383888 -0.908233
vn 0.130998 -0.524204 0.841457
vn 0.060199 -0.608745 -0.791079
vn 0.816591 -0.422654 -0.393119
vn 0.797081 -0.603838 -0.006424
vn 0.903755 -0.426365 -0.037944
vn 0.879025 0.361661 -0.310671
vn 0.920919 0.389647 0.009101
vn 0.087830 0.993162 0.076910
vn -0.863172 0.423841 -0.274395
vn -0.875701 -0.380346 -0.297464
vn -0.104196 -0.994556 -0.001442
vn 0.870802 -0.420976 0.253935
vn 0.877211 0.398161 0.268271
vn -0.391878 0.920017 0.000571
vn 0.580078 0.809327 0.092193
vn -0.900647 0.390692 -0.190247
vn -0.894471 -0.302912 -0.328887
vn -0.525448 -0.803595 -0.279535
vn 0.357187 -0.924728 0.131511
vn 0.885448 -0.353296 0.301934
vn 0.924008 0.302453 0.233948
vn 0.953842 -0.042832 0.297238
vn -0.741078 -0.618322 -0.261690
vn -0.953363 0.044380 -0.298545
vn -0.255709 -0.955653 -0.146080
vn 0.866587 0.456475 -0.201638
vn -0.463594 0.796426 -0.388312
vn -0.845152 0.393105 -0.362198
vn -0.899121 -0.303001 -0.315866
vn -0.609111 -0.502883 -0.613264
vn 0.792802 -0.607802 -0.045185
vn 0.954693 -0.232745 0.185448
vn 0.925669 0.288047 0.245289
vn 0.817181 0.335009 0.469025
vn -0.950682 0.259703 -0.169582
vn -0.957312 0.205595 0.203184
vn -0.953521 -0.175315 0.245076
vn -0.927414 -0.374035 -0.000540
vn 0.834181 -0.068700 0.547196
vn 0.627711 0.083734 0.773930
vn 0.700735 0.131269 0.701241
vn 0.722205 0.205338 0.660497
vn -0.079768 0.099335 0.991852
vn 0.537424 0.144752 0.830796
vn 0.551043 0.521198 0.651694
vn 0.854144 -0.495371 -0.158261
vn -0.023203 0.155379 0.987582
vn -0.018730 -0.171997 0.984919
vn 0.403861 -0.025892 0.914454
vn -0.120047 -0.181932 0.975956
vn 0.373983 -0.135862 0.917430
vn 0.399052 -0.564785 0.722340
vn 0.584531 -0.761746 0.279404
vn 0.987051 0.160398 -0.001820
vn -0.026483 -0.316445 0.948241
vn 0.782836 -0.553819 0.283641
vn 0.528041 -0.256084 0.809688
vn 0.362069 -0.932119 0.007809
vn 0.990489 0.114043 0.076982
vn 0.831378 -0.203102 -0.517262
vn 0.990995 -0.101847 0.086926
vn 0.712860 -0.678391 -0.177809
vn 0.949046 -0.205116 0.239246
vn 0.907117 -0.159382 -0.389533
vn 0.516886 0.143158 -0.844000
vn 0.861487 -0.096545 -0.498518
vn 0.495659 0.026832 -0.868103
vn 0.857377 -0.236938 -0.456908
vn 0.529478 0.023652 -0.847994
vn 0.838678 -0.084631 -0.538011
vn 0.945982 0.177521 0.271302
vn 0.496440 0.854737 0.151565
vn 0.763649 0.578413 -0.286843
vn 0.990452 0.101533 0.093248
vn 0.994102 -0.095979 0.050490
vn 0.818986 0.043305 -0.572178
vn 0.697206 0.516969 0.496635
vn 0.848108 0.508436 0.149016
vn 0.206878 -0.695174 0.688429
vn 0.261313 0.916688 0.302322
vn -0.906215 0.312494 0.284820
vn -0.277475 0.923253 -0.265729
vn -0.357127 -0.144610 -0.922794
vn -0.521200 0.374713 -0.766773
vn -0.445842 0.837645 -0.315557
vn -0.790845 0.599392 0.123666
vn -0.515376 0.363706 0.775955
vn -0.944927 0.138330 0.296610
vn -0.469960 0.370995 0.800937
vn -0.916834 0.027615 0.398312
vn -0.537732 0.129023 0.833185
vn -0.904491 -0.143228 0.401723
vn -0.453082 -0.017845 0.891290
vn -0.882803 -0.190908 0.429200
vn -0.522156 -0.176821 0.834319
vn -0.755086 -0.485871 0.440198
vn -0.685141 -0.726794 0.048507
vn -0.391363 -0.821043 -0.415600
vn -0.431114 -0.419465 -0.798868
vn -0.917068 0.129985 0.376948
vn -0.425311 -0.875281 0.230203
vn -0.756707 -0.528269 -0.385132
vn -0.181291 -0.786471 0.590421
vn -0.260620 -0.460064 0.848775
vn -0.288456 0.185112 0.939429
vn -0.254727 0.496898 0.829582
vn -0.119816 0.912896 0.390212
vn -0.013663 0.998916 0.044497
vn -0.771815 0.380813 -0.509198
vn -0.524277 0.002943 -0.851543
vn 0.044307 -0.176115 -0.983372
vn -0.543332 0.078065 -0.835881
vn 0.071498 -0.196610 -0.977871
vn -0.546323 -0.040289 -0.836605
vn 0.022172 -0.325799 -0.945179
vn -0.397284 0.094690 -0.912797
vn -0.574643 -0.345542 -0.741881
vn 0.040400 -0.990483 -0.131573
vn -0.044739 -0.988316 0.145704
vn -0.203119 -0.721907 0.661508
vn -0.268896 -0.400994 0.875728
vn -0.984198 0.111892 0.137240
vn -0.258581 0.473230 0.842134
vn -0.817032 0.573058 0.063749
vn -0.847708 0.113579 -0.518160
vn -0.935226 0.177521 -0.306330
vn -0.913890 -0.195566 -0.355752
vn -0.867766 -0.045229 -0.494911
vn -0.883939 0.165795 -0.437224
vt 0.180176 0.510498
vt 0.182861 0.443848
vt 0.182861 0.436035
vt 0.180176 0.518311
vt 0.167236 0.560303
vt 0.158936 0.419922
vt 0.855957 0.573975
vt 0.361328 0.557373
vt 0.855957 0.562012
vt 0.943115 0.827637
vt 0.859619 0.825195
vt 0.943115 0.824463
vt 0.859619 0.828369
vt 0.988037 0.585938
vt 0.943604 0.575195
vt 0.988037 0.582764
vt 0.943604 0.578369
vt 0.988037 0.550049
vt 0.364746 0.521484
vt 0.988037 0.496094
vt 0.364746 0.467773
vt 0.988037 0.455566
vt 0.947998 0.453369
vt 0.855957 0.447998
vt 0.364746 0.424072
vt 0.855957 0.453369
vt 0.946777 0.197266
vt 0.871582 0.186768
vt 0.946777 0.200439
vt 0.871582 0.183594
vt 0.988037 0.452393
vt 0.947998 0.450195
vt 0.988037 0.488281
vt 0.364746 0.459961
vt 0.988037 0.542236
vt 0.364746 0.513916
vt 0.320801 0.631104
vt 0.320801 0.552734
vt 0.320801 0.435059
vt 0.320801 0.340088
vt 0.320801 0.418457
vt 0.320801 0.536133
vt 0.275146 0.551514
vt 0.275146 0.548340
vt 0.275146 0.515625
vt 0.275146 0.461670
vt 0.275146 0.421387
vt 0.275146 0.418213
vt 0.275146 0.454102
vt 0.275146 0.508057
vt 0.230225 0.595215
vt 0.237793 0.515625
vt 0.237793 0.461670
vt 0.235107 0.363281
vt 0.237793 0.454102
vt 0.237793 0.508057
vt 0.195557 0.562012
vt 0.195313 0.516846
vt 0.195313 0.462891
vt 0.182861 0.414307
vt 0.195313 0.455078
vt 0.195313 0.509033
vt 0.031006 0.675049
vt 0.016357 0.638184
vt 0.020996 0.599854
vt 0.094971 0.959229
vt 0.108154 0.836182
vt 0.027344 0.732178
vt 0.001221 0.510742
vt 0.014893 0.460693
vt 0.009766 0.402832
vt 0.018311 0.359619
vt 0.056641 0.110596
vt 0.119385 0.015381
vt 0.091553 0.146973
vt 0.017334 0.283936
vt 0.164551 0.352295
vt 0.122070 0.348389
vt 0.139160 0.312012
vt 0.198730 0.327881
vt 0.234375 0.127930
vt 0.205811 0.187744
vt 0.186279 0.036377
vt 0.164063 0.099121
vt 0.063232 0.366699
vt 0.075439 0.410400
vt 0.063965 0.453857
vt 0.077393 0.511475
vt 0.069580 0.563477
vt 0.085938 0.603516
vt 0.077148 0.644531
vt 0.156738 0.883789
vt 0.150391 0.988770
vt 0.234863 0.901123
vt 0.217529 0.821533
vt 0.221680 0.685791
vt 0.256836 0.743164
vt 0.127197 0.635010
vt 0.184082 0.596436
vt 0.144043 0.659668
f 1/1/1 2/2/2 3/3/3
f 1/1/1 4/4/4 2/2/2
f 1/1/1 5/5/5 4/4/4
f 6/6/6 7/6/7 3/3/3
f 2/2/2 6/6/6 3/3/3
f 4/4/4 5/5/5 8/5/8
f 9/7/9 10/8/10 11/9/11
f 12/10/12 13/11/13 14/12/14
f 12/10/12 15/13/15 13/11/13
f 16/14/16 17/15/17 18/16/18
f 16/14/16 19/17/19 17/15/17
f 20/18/20 10/8/10 9/7/9
f 20/18/20 21/19/21 10/8/10
f 19/17/19 16/14/16 20/18/20
f 19/17/19 20/18/20 9/7/9
f 22/20/22 21/19/21 20/18/20
f 22/20/22 23/21/23 21/19/21
f 22/20/22 24/22/24 25/23/25
f 26/24/26 23/21/23 22/20/22
f 26/24/26 27/25/27 23/21/23
f 26/24/26 22/20/22 25/23/25
f 28/26/28 27/25/27 26/24/26
f 29/27/29 30/28/30 31/29/31
f 29/27/29 32/30/32 30/28/30
f 33/31/33 25/23/25 24/22/24
f 33/31/33 34/32/34 25/23/25
f 35/33/35 27/25/27 28/26/28
f 35/33/35 36/34/36 27/25/27
f 34/32/34 33/31/33 35/33/35
f 34/32/34 35/33/35 28/26/28
f 37/35/37 36/34/36 35/33/35
f 37/35/37 38/36/38 36/34/36
f 37/35/37 18/16/18 17/15/17
f 11/9/11 38/36/38 37/35/37
f 11/9/11 10/8/10 38/36/38
f 11/9/11 37/35/37 17/15/17
f 18/16/18 20/18/20 16/14/16
f 24/22/24 20/18/20 18/16/18
f 24/22/24 22/20/22 20/18/20
f 33/31/33 37/35/37 35/33/35
f 24/22/24 37/35/37 33/31/33
f 24/22/24 18/16/18 37/35/37
f 21/19/21 39/37/39 10/8/10
f 21/19/21 40/38/40 39/37/39
f 23/21/23 40/38/40 21/19/21
f 23/21/23 41/39/41 40/38/40
f 27/25/27 41/39/41 23/21/23
f 27/25/27 42/40/42 41/39/41
f 36/34/36 42/40/42 27/25/27
f 36/34/36 43/41/43 42/40/42
f 38/36/38 43/41/43 36/34/36
f 38/36/38 44/42/44 43/41/43
f 10/8/10 44/42/44 38/36/38
f 10/8/10 39/37/39 44/42/44
f 45/43/45 46/44/46 39/37/39
f 40/38/40 45/43/45 39/37/39
f 40/38/40 47/45/47 45/43/45
f 41/39/41 47/45/47 40/38/40
f 41/39/41 48/46/48 47/45/47
f 42/40/42 48/46/48 41/39/41
f 42/40/42 49/47/49 48/46/48
f 50/48/50 49/47/49 42/40/42
f 43/41/43 50/48/50 42/40/42
f 43/41/43 51/49/51 50/48/50
f 44/42/44 51/49/51 43/41/43
f 44/42/44 52/50/52 51/49/51
f 39/37/39 52/50/52 44/42/44
f 39/37/39 46/44/46 52/50/52
f 28/26/28 29/27/53 34/32/34
f 28/26/28 32/30/32 29/27/53
f 26/24/26 32/30/32 28/26/28
f 26/24/26 30/28/30 32/30/32
f 25/23/25 30/28/30 26/24/26
f 25/23/25 31/29/31 30/28/30
f 34/32/34 31/29/31 25/23/25
f 34/32/34 29/27/29 31/29/31
f 25/23/25 28/26/28 34/32/34
f 25/23/25 26/24/26 28/26/28
f 9/7/54 12/10/12 19/17/19
f 9/7/54 15/13/55 12/10/12
f 11/9/11 15/13/15 9/7/9
f 11/9/11 13/11/13 15/13/15
f 17/15/17 13/11/13 11/9/11
f 17/15/17 14/12/14 13/11/13
f 19/17/19 14/12/14 17/15/17
f 19/17/19 12/10/12 14/12/14
f 17/15/17 9/7/54 19/17/19
f 17/15/17 11/9/56 9/7/54
f 45/43/45 53/51/57 46/44/46
f 45/43/45 54/51/58 53/51/57
f 47/45/47 54/51/58 45/43/45
f 47/45/47 55/52/59 54/51/58
f 48/46/48 55/52/59 47/45/47
f 48/46/48 56/53/60 55/52/59
f 49/47/49 56/53/60 48/46/48
f 49/47/49 57/54/61 56/53/60
f 50/48/50 57/54/61 49/47/49
f 50/48/50 58/54/62 57/54/61
f 51/49/51 58/54/62 50/48/50
f 51/49/51 59/55/63 58/54/62
f 52/50/52 59/55/63 51/49/51
f 52/50/52 60/56/64 59/55/63
f 46/44/46 60/56/64 52/50/52
f 46/44/46 53/51/57 60/56/64
f 54/51/58 61/57/65 53/51/57
f 54/51/58 62/57/66 61/57/65
f 55/52/59 62/57/66 54/51/58
f 55/52/59 63/58/67 62/57/66
f 56/53/60 63/58/67 55/52/59
f 56/53/60 64/59/68 63/58/67
f 57/54/61 64/59/68 56/53/60
f 57/54/61 65/60/69 64/59/68
f 58/54/62 65/60/69 57/54/61
f 58/54/62 66/60/70 65/60/69
f 59/55/63 66/60/70 58/54/62
f 59/55/63 67/61/71 66/60/70
f 60/56/64 67/61/71 59/55/63
f 60/56/64 68/62/72 67/61/71
f 53/51/57 68/62/72 60/56/64
f 53/51/57 61/57/65 68/62/72
f 62/57/66 5/5/5 61/57/65
f 62/57/66 8/5/8 5/5/5
f 62/57/66 63/58/67 4/4/4
f 4/4/4 8/5/8 62/57/66
f 64/59/68 4/4/4 63/58/67
f 64/59/68 2/2/2 4/4/4
f 2/2/2 64/59/68 65/60/69
f 2/2/2 65/60/69 6/6/6
f 66/60/70 6/6/6 65/60/69
f 66/60/70 7/6/7 6/6/6
f 66/60/70 67/61/71 3/3/3
f 3/3/3 7/6/7 66/60/70
f 68/62/72 3/3/3 67/61/71
f 68/62/72 1/1/1 3/3/3
f 61/57/65 1/1/1 68/62/72
f 61/57/65 5/5/5 1/1/1
f 69/63/73 70/64/74 71/65/75
f 72/66/76 69/63/73 73/67/77
f 72/66/76 74/68/78 69/63/73
f 71/65/75 75/69/79 76/70/80
f 76/70/80 77/71/81 78/72/82
f 79/73/83 80/74/84 81/75/85
f 78/72/82 82/76/86 79/73/83
f 83/77/87 84/78/88 85/79/89
f 66/60/70 84/78/88 83/77/87
f 66/60/70 7/6/7 84/78/88
f 58/54/62 83/77/87 86/80/90
f 58/54/62 66/60/70 83/77/87
f 87/81/91 86/80/90 88/82/92
f 87/81/91 58/54/62 86/80/90
f 89/83/93 88/82/92 90/84/94
f 89/83/93 87/81/91 88/82/92
f 80/74/84 90/84/94 81/75/85
f 80/74/84 89/83/93 90/84/94
f 81/75/85 76/70/80 78/72/82
f 81/75/85 78/72/82 79/73/83
f 91/85/95 92/86/96 93/87/97
f 71/65/75 81/75/85 91/85/95
f 71/65/75 76/70/80 81/75/85
f 93/87/97 94/88/98 95/89/99
f 69/63/73 91/85/95 93/87/97
f 69/63/73 71/65/75 91/85/95
f 95/89/99 96/90/100 97/91/101
f 69/63/73 93/87/97 95/89/99
f 69/63/73 95/89/99 97/91/101
f 69/63/73 97/91/101 73/67/77
f 72/66/76 73/67/77 98/92/102
f 98/92/102 99/93/103 72/66/76
f 100/94/104 98/92/102 101/95/105
f 100/94/104 99/93/103 98/92/102
f 101/95/105 102/96/106 103/97/107
f 102/96/106 53/51/57 103/97/107
f 103/97/107 100/94/104 101/95/105
f 61/57/65 104/98/108 5/5/5
f 105/99/109 104/98/110 61/57/65
f 105/99/109 106/100/111 104/98/108
f 105/99/109 53/51/57 102/96/106
f 105/99/109 61/57/65 53/51/57
f 107/98/112 106/100/111 108/100/113
f 107/98/112 104/98/108 106/100/111
f 8/5/8 104/98/110 107/98/112
f 8/5/8 5/5/5 104/98/110
f 62/57/66 5/5/5 8/5/8
f 62/57/66 61/57/65 5/5/5
f 109/97/114 53/51/57 54/51/58
f 109/97/114 103/97/107 53/51/57
f 110/94/115 103/97/107 109/97/114
f 110/94/115 100/94/104 103/97/107
f 111/93/116 100/94/104 110/94/115
f 111/93/116 99/93/103 100/94/104
f 112/66/117 99/93/103 111/93/116
f 112/66/117 72/66/76 99/93/103
f 113/68/118 72/66/76 112/66/117
f 113/68/118 74/68/78 72/66/76
f 114/63/119 74/68/78 113/68/118
f 114/63/119 69/63/73 74/68/78
f 115/64/120 69/63/73 114/63/119
f 115/64/120 70/64/74 69/63/73
f 116/65/121 70/64/74 115/64/120
f 116/65/121 71/65/75 70/64/74
f 117/69/122 71/65/75 116/65/121
f 117/69/122 75/69/79 71/65/75
f 118/70/123 75/69/79 117/69/122
f 118/70/123 76/70/80 75/69/79
f 119/71/124 76/70/80 118/70/123
f 119/71/124 77/71/81 76/70/80
f 120/72/125 77/71/81 119/71/124
f 120/72/125 78/72/82 77/71/81
f 121/76/126 78/72/82 120/72/125
f 121/76/126 82/76/86 78/72/82
f 122/73/127 82/76/86 121/76/126
f 122/73/127 79/73/83 82/76/86
f 123/74/128 79/73/83 122/73/127
f 123/74/128 80/74/84 79/73/83
f 124/83/129 80/74/84 123/74/128
f 124/83/129 89/83/93 80/74/84
f 125/81/130 89/83/93 124/83/129
f 125/81/130 87/81/91 89/83/93
f 57/54/61 87/81/91 125/81/130
f 57/54/61 58/54/62 87/81/91
f 6/6/6 66/60/70 65/60/69
f 6/6/6 7/6/7 66/60/70
f 126/78/131 7/6/7 6/6/6
f 126/78/131 84/78/88 7/6/7
f 127/79/132 84/78/88 126/78/131
f 127/79/132 85/79/89 84/78/88
f 128/77/133 85/79/89 127/79/132
f 128/77/133 83/77/87 85/79/89
f 129/80/134 83/77/87 128/77/133
f 129/80/134 86/80/135 83/77/87
f 130/82/136 86/80/135 129/80/134
f 130/82/136 88/82/137 86/80/135
f 131/84/138 88/82/137 130/82/136
f 131/84/138 90/84/139 88/82/137
f 132/75/140 90/84/139 131/84/138
f 132/75/140 81/75/85 90/84/139
f 133/85/141 81/75/85 132/75/140
f 133/85/141 91/85/95 81/75/85
f 134/86/142 91/85/95 133/85/141
f 134/86/142 92/86/96 91/85/95
f 135/87/143 92/86/96 134/86/142
f 135/87/143 93/87/97 92/86/96
f 136/88/144 93/87/97 135/87/143
f 136/88/144 94/88/98 93/87/97
f 137/89/145 94/88/98 136/88/144
f 137/89/145 95/89/99 94/88/98
f 138/90/146 95/89/99 137/89/145
f 138/90/146 96/90/100 95/89/99
f 139/91/147 96/90/100 138/90/146
f 139/91/147 97/91/101 96/90/100
f 140/67/148 97/91/101 139/91/147
f 140/67/148 73/67/77 97/91/101
f 141/92/149 73/67/77 140/67/148
f 141/92/149 98/92/150 73/67/77
f 142/95/151 98/92/150 141/92/149
f 142/95/151 101/95/152 98/92/150
f 143/96/153 101/95/152 142/95/151
f 143/96/153 102/96/154 101/95/152
f 144/99/155 102/96/154 143/96/153
f 144/99/155 105/99/109 102/96/154
f 108/100/113 105/99/109 144/99/155
f 108/100/113 106/100/111 105/99/109
f 144/99/155 107/98/112 108/100/113
f 62/57/66 107/98/112 144/99/155
f 62/57/66 8/5/8 107/98/112
f 143/96/153 62/57/66 144/99/155
f 109/97/114 62/57/66 143/96/153
f 109/97/114 54/51/58 62/57/66
f 110/94/115 143/96/153 142/95/156
f 110/94/115 109/97/114 143/96/153
f 141/92/157 110/94/115 142/95/156
f 141/92/157 112/66/117 111/93/116
f 111/93/116 110/94/115 141/92/157
f 112/66/117 141/92/157 140/67/148
f 139/91/147 138/90/146 137/89/145
f 140/67/148 139/91/147 114/63/119
f 114/63/119 112/66/117 140/67/148
f 114/63/119 113/68/118 112/66/117
f 137/89/145 136/88/144 135/87/143
f 137/89/145 114/63/119 139/91/147
f 116/65/121 114/63/119 137/89/145
f 116/65/121 115/64/120 114/63/119
f 135/87/143 134/86/142 133/85/141
f 135/87/143 116/65/121 137/89/145
f 118/70/123 116/65/121 135/87/143
f 118/70/123 117/69/122 116/65/121
f 133/85/141 118/70/123 135/87/143
f 120/72/125 118/70/123 133/85/141
f 120/72/125 119/71/124 118/70/123
f 132/75/140 120/72/125 133/85/141
f 122/73/127 120/72/125 132/75/140
f 122/73/127 121/76/126 120/72/125
f 132/75/140 131/84/158 123/74/128
f 131/84/158 124/83/129 123/74/128
f 123/74/128 122/73/127 132/75/140
f 125/81/130 131/84/158 130/82/159
f 125/81/130 124/83/129 131/84/158
f 57/54/61 130/82/159 129/80/160
f 57/54/61 125/81/130 130/82/159
f 65/60/69 126/78/131 6/6/6
f 128/77/133 126/78/131 65/60/69
f 128/77/133 127/79/132 126/78/131
f 128/77/133 57/54/61 129/80/160
f 128/77/133 65/60/69 57/54/61
