#
#
#

mtllib shield.mtl


#
# Shield Mesh Mesh Mesh Mesh Mesh
#
g Shield Mesh Mesh Mesh Mesh Mesh


#
# Shield Mesh Mesh Mesh Mesh Mesh_Shield Mesh Mesh Mesh Mesh_Shield Mesh Mesh Mesh_Shield Mesh Mesh_Shield Mesh_Old_Shield
#
usemtl Shield Mesh Mesh Mesh Mesh Mesh_Shield Mesh Mesh Mesh Mesh_Shield Mesh Mesh Mesh_Shield Mesh Mesh_Shield Mesh_Old_Shield

v -0.513880 -0.362819 0.002703
v -0.437911 -0.437339 -0.044961
v -0.286815 -0.214669 -0.002847
v -0.263290 -0.378126 -0.060730
v -0.277138 -0.598018 -0.095819
v -0.497069 -0.611613 -0.055880
v -0.292295 -0.869960 -0.106199
v -0.529283 -0.869967 -0.059019
v -0.497056 -1.128319 -0.055884
v -0.277123 -1.141901 -0.095823
v -0.005397 -0.869953 -0.126756
v -0.005101 -0.583135 -0.112237
v -0.004220 -0.346006 -0.069976
v 0.255011 -0.378111 -0.071598
v 0.267386 -0.598005 -0.107237
v 0.282109 -0.869945 -0.118244
v 0.488812 -1.128293 -0.076557
v 0.520867 -0.869940 -0.081040
v 0.267401 -1.141888 -0.107241
v 0.255037 -1.361782 -0.071606
v 0.430165 -1.302568 -0.063169
v 0.508064 -1.377088 -0.018734
v 0.280967 -1.525239 -0.014762
v 0.656311 -1.150964 -0.022700
v -0.005086 -1.156771 -0.112242
v -0.004193 -1.393899 -0.069984
v -0.263265 -1.361795 -0.060738
v 0.709715 -0.869935 -0.024412
v 0.710538 -0.869935 -0.012947
v 0.657129 -0.588623 -0.011443
v 0.656297 -0.588909 -0.022694
v 0.657144 -1.151250 -0.011447
v 0.488798 -0.611587 -0.076553
v 0.430142 -0.437315 -0.063163
v -0.002955 -0.161257 -0.009381
v 0.280933 -0.214654 -0.014752
v -0.002714 -0.160655 0.002087
v 0.281450 -0.214042 -0.003513
v -0.003002 -0.103767 -0.011552
v 0.295552 -0.161903 -0.017708
v 0.543767 -0.326292 -0.022819
v 0.508841 -0.362210 -0.007933
v 0.508038 -0.362793 -0.018726
v -0.286861 -0.214058 0.008404
v -0.437888 -1.302591 -0.044967
v -0.513853 -1.377114 0.002695
v -0.286781 -1.525253 -0.002857
v -0.662509 -1.151284 0.016225
v -0.514203 -1.377697 0.013512
v -0.662148 -1.151000 0.004949
v -0.715932 -0.869972 0.016964
v -0.715590 -0.869972 0.005475
v -0.662523 -0.588659 0.016230
v -0.662162 -0.588942 0.004953
v -0.514229 -0.362237 0.013520
v -0.772367 -0.869974 0.004513
v -0.714225 -0.573749 0.003422
v -0.549751 -0.326322 0.000111
v -0.714210 -1.166196 0.003416
v -0.713077 -1.165158 -0.013167
v -0.771034 -0.869974 -0.012080
v -0.713093 -0.574786 -0.013163
v -0.661843 -0.589808 -0.031179
v -0.715034 -0.869972 -0.030457
v -0.661828 -1.150133 -0.031183
v -0.549724 -1.413615 0.000102
v -0.286827 -1.525865 0.008394
v -0.301512 -1.578004 -0.005199
v -0.549108 -1.411744 -0.016469
v -0.301496 -1.575579 -0.021760
v -0.514081 -1.375651 -0.033873
v -0.287359 -1.523227 -0.038986
v -0.262285 -0.380799 -0.068954
v -0.275643 -0.599665 -0.101133
v -0.436190 -0.439633 -0.054630
v -0.494848 -0.612993 -0.064141
v -0.713620 -0.869972 -0.015240
v -0.660340 -0.590287 -0.015595
v -0.526859 -0.869966 -0.067260
v -0.660325 -1.149654 -0.015599
v -0.494835 -1.126938 -0.064145
v -0.290621 -0.869960 -0.111498
v -0.275629 -1.140253 -0.101137
v -0.005508 -0.869953 -0.132018
v -0.005196 -1.154960 -0.117502
v -0.436167 -1.300296 -0.054637
v -0.262260 -1.359122 -0.068962
v -0.512532 -1.374442 -0.017396
v -0.286550 -1.522024 -0.023341
v -0.003351 -1.575260 -0.030029
v -0.004365 -1.391032 -0.078158
v 0.279877 -1.522010 -0.035219
v 0.253687 -1.359108 -0.079781
v 0.505902 -1.374416 -0.038752
v 0.428039 -1.300274 -0.072759
v 0.265685 -1.140241 -0.112487
v 0.486248 -1.126914 -0.084718
v 0.653628 -1.149620 -0.043154
v -0.003671 -1.576385 -0.045304
v 0.280029 -1.523212 -0.050884
v 0.506758 -1.375625 -0.055280
v 0.280216 -0.869945 -0.123468
v -0.005210 -0.584946 -0.117498
v -0.004392 -0.348875 -0.078150
v 0.265670 -0.599652 -0.112484
v 0.428017 -0.439610 -0.072752
v 0.486234 -0.612968 -0.084713
v 0.253662 -0.380785 -0.079774
v 0.279843 -0.217882 -0.035209
v -0.003388 -0.164648 -0.030017
v 0.279996 -0.216681 -0.050874
v -0.003708 -0.163521 -0.045293
v -0.003349 -0.106399 -0.028107
v 0.294842 -0.164329 -0.034254
v -0.301532 -0.164345 -0.021748
v -0.287393 -0.216696 -0.038977
v -0.286584 -0.217897 -0.023331
v 0.505876 -0.365464 -0.038743
v 0.506732 -0.364255 -0.055272
v -0.512559 -0.365491 -0.017388
v 0.653614 -0.590253 -0.043147
v 0.706877 -0.869935 -0.045026
v 0.518100 -0.869939 -0.089171
v 0.707653 -0.869935 -0.060289
v 0.654477 -1.150099 -0.058785
v 0.654462 -0.589773 -0.058781
v -0.002918 -1.578650 -0.009391
v -0.002678 -1.579252 0.002076
v 0.281484 -1.525850 -0.003523
v 0.295589 -1.577988 -0.017719
v -0.002963 -1.636140 -0.011565
v -0.003309 -1.633509 -0.028119
v 0.294879 -1.575563 -0.034264
v 0.543796 -1.413587 -0.022828
v 0.542486 -1.411716 -0.039359
v 0.708264 -1.166159 -0.026412
v 0.706436 -1.165121 -0.042934
v 0.764373 -0.869934 -0.044276
v 0.766401 -0.869934 -0.027754
v 0.708248 -0.573711 -0.026407
v 0.706421 -0.574748 -0.042928
v 0.542459 -0.328162 -0.039350
v 0.508867 -1.377670 -0.007941
v -0.549136 -0.328191 -0.016460
v -0.301548 -0.161920 -0.005188
v -0.514107 -0.364282 -0.033866
vn 0.547240 -0.495532 0.674519
vn 0.230003 -0.224745 0.946883
vn 0.309079 -0.741169 0.595935
vn 0.106482 -0.226701 0.968126
vn 0.119107 -0.098632 0.987970
vn 0.268076 -0.108247 0.957297
vn 0.149648 -0.000004 0.988739
vn 0.277414 -0.012400 0.960670
vn 0.258649 0.081896 0.962494
vn 0.119102 0.098622 0.987972
vn 0.026979 0.006011 0.999618
vn 0.013661 -0.116910 0.993049
vn 0.032671 -0.260276 0.964981
vn -0.081511 -0.258842 0.962474
vn -0.087075 -0.108138 0.990315
vn -0.095605 -0.007175 0.995394
vn -0.227709 0.108233 0.967695
vn -0.247436 -0.000016 0.968904
vn -0.077587 0.098618 0.992096
vn -0.081524 0.258823 0.962478
vn -0.192034 0.213027 0.957989
vn -0.556558 0.570888 0.603598
vn -0.272397 0.822931 0.498583
vn -0.741105 0.249827 0.623178
vn 0.020785 0.129405 0.991374
vn 0.032658 0.260263 0.964985
vn 0.128583 0.250144 0.959633
vn -0.776899 -0.000027 0.629625
vn -0.701435 -0.010801 0.712652
vn -0.195119 -0.084710 0.977114
vn -0.777432 -0.308215 0.548272
vn -0.741104 0.249827 0.623178
vn -0.500584 0.249371 0.828993
vn -0.227705 -0.108259 0.967693
vn -0.192023 -0.213052 0.957985
vn -0.035755 -0.790557 0.611344
vn -0.357937 -0.785721 0.504503
vn 0.053070 -0.587476 0.807499
vn -0.099582 -0.417791 0.903069
vn 0.026750 0.713424 0.700222
vn 0.307350 0.865452 0.395638
vn 0.518148 0.557878 0.648302
vn -0.580528 -0.593748 0.557181
vn -0.454891 -0.472353 0.754955
vn 0.140271 -0.346613 0.927461
vn 0.243523 0.210888 0.946690
vn 0.594742 0.559820 0.576961
vn 0.333375 0.724605 0.603166
vn 0.529153 0.275406 0.802589
vn 0.282758 0.329348 0.900876
vn 0.766130 0.275985 0.580411
vn 0.602879 0.061895 0.795428
vn 0.802800 -0.026912 0.595641
vn 0.575896 -0.154230 0.802843
vn 0.735500 -0.322293 0.595959
vn 0.603406 -0.593718 0.532354
vn -0.799580 -0.052888 0.598227
vn -0.808601 0.326813 0.489242
vn -0.490545 0.557852 0.669453
vn -0.725073 -0.362209 0.585725
vn -0.737321 -0.269859 -0.619301
vn -0.720491 0.032966 -0.692680
vn -0.641674 0.274482 -0.716180
vn 0.463731 -0.265323 -0.845315
vn 0.726368 -0.058539 -0.684809
vn -0.808601 0.326813 0.489243
vn 0.617288 0.268176 -0.739619
vn -0.598235 -0.681288 0.421855
vn 0.239416 0.723928 0.647000
vn -0.237066 -0.709082 0.664080
vn -0.575998 -0.526019 -0.625724
vn -0.326331 -0.691260 -0.644723
vn 0.189651 0.237481 -0.952699
vn 0.215876 0.492448 -0.843144
vn -0.107497 0.216104 -0.970435
vn -0.120983 0.100622 -0.987542
vn -0.205902 0.175743 -0.962662
vn -0.212664 0.076246 -0.974146
vn 0.734722 0.056970 -0.675972
vn 0.379652 -0.112564 -0.918256
vn -0.242895 0.000002 -0.970053
vn 0.308431 0.145757 -0.940013
vn -0.228122 -0.093070 -0.969174
vn -0.130585 0.007213 -0.991411
vn -0.112869 -0.092412 -0.989303
vn -0.020965 0.000008 -0.999780
vn -0.013630 -0.110310 -0.993804
vn -0.197679 -0.178446 -0.963888
vn -0.107487 -0.216093 -0.970438
vn 0.366950 0.385266 -0.846710
vn 0.202644 0.711680 -0.672642
vn -0.077517 0.570693 -0.817496
vn -0.010254 -0.219134 -0.975641
vn -0.282859 0.497138 -0.820271
vn 0.072827 -0.210066 -0.974971
vn -0.453456 0.325744 -0.829620
vn 0.165364 -0.175729 -0.970451
vn 0.079479 -0.100608 -0.991747
vn 0.171637 -0.076232 -0.982206
vn -0.417814 0.112578 -0.901531
vn 0.022380 0.402093 -0.915325
vn -0.154763 0.534148 -0.831104
vn -0.480235 0.558343 -0.676482
vn 0.088910 -0.007198 -0.996014
vn -0.028042 0.110324 -0.993500
vn -0.010266 0.219148 -0.975638
vn 0.071298 0.092427 -0.993164
vn 0.161898 0.183231 -0.969647
vn 0.171637 0.076256 -0.982205
vn 0.055823 0.194264 -0.979360
vn -0.129836 -0.396437 -0.908835
vn 0.018733 -0.571355 -0.820489
vn -0.281371 -0.483212 -0.829057
vn -0.082007 -0.555486 -0.827472
vn -0.002840 0.807640 -0.589669
vn 0.321682 0.684346 -0.654364
vn -0.326367 0.691254 -0.644711
vn 0.224950 -0.641914 -0.733037
vn 0.187401 -0.522526 -0.831774
vn -0.479667 -0.558057 -0.677120
vn -0.321468 -0.237966 -0.916532
vn 0.479509 -0.467734 -0.742494
vn -0.382719 -0.191755 -0.903746
vn -0.762413 -0.056959 -0.644579
vn 0.202016 0.000014 -0.979382
vn -0.754435 0.058549 -0.653758
vn -0.365496 0.183926 -0.912460
vn -0.542522 -0.170268 -0.822605
vn 0.039198 0.791206 0.610292
vn -0.044065 0.586753 0.808566
vn -0.256918 0.513619 0.818650
vn 0.297048 -0.780947 0.549441
vn 0.026788 -0.713434 0.700211
vn -0.010274 -0.871072 -0.491047
vn 0.299053 -0.691245 -0.657836
vn 0.573926 -0.607731 0.548882
vn 0.509228 -0.477685 -0.715894
vn 0.754894 -0.340735 0.560388
vn 0.789186 -0.279792 -0.546720
vn 0.690819 0.033003 -0.722274
vn 0.824674 -0.032510 0.564674
vn 0.881035 0.360029 0.306850
vn 0.611073 0.274515 -0.742449
vn 0.618438 0.564666 -0.546522
vn -0.243025 0.241017 0.939601
vn 0.509228 -0.477684 -0.715894
vn -0.576026 0.525998 -0.625715
vn -0.250920 0.785389 0.565865
vn 0.189663 -0.237456 -0.952703
vn -0.365497 0.183926 -0.912460
vt 0.630800 0.880900
vt 0.652000 0.860400
vt 0.687500 0.918000
vt 0.695600 0.876500
vt 0.691600 0.820900
vt 0.635900 0.816900
vt 0.686000 0.752300
vt 0.626000 0.752300
vt 0.635900 0.687700
vt 0.691600 0.683700
vt 0.760300 0.752300
vt 0.760300 0.826400
vt 0.760300 0.886400
vt 0.825000 0.876600
vt 0.829000 0.820900
vt 0.834600 0.752300
vt 0.884700 0.687700
vt 0.894600 0.752300
vt 0.829000 0.683700
vt 0.825000 0.628000
vt 0.868600 0.644100
vt 0.889800 0.623700
vt 0.833100 0.586500
vt 0.927000 0.680300
vt 0.760300 0.678200
vt 0.760300 0.618200
vt 0.695600 0.628000
vt 0.941000 0.752300
vt 0.954500 0.752300
vt 0.939500 0.829600
vt 0.927000 0.824300
vt 0.939500 0.674900
vt 0.884700 0.816900
vt 0.868600 0.860400
vt 0.760300 0.931900
vt 0.833100 0.918000
vt 0.760300 0.945400
vt 0.838400 0.930500
vt 0.760300 0.961400
vt 0.842000 0.945500
vt 0.909600 0.900800
vt 0.899500 0.890500
vt 0.889800 0.880900
vt 0.682100 0.930500
vt 0.652000 0.644100
vt 0.630800 0.623700
vt 0.687500 0.586500
vt 0.581000 0.674900
vt 0.621100 0.614100
vt 0.593500 0.680300
vt 0.566000 0.752300
vt 0.579600 0.752300
vt 0.581000 0.829600
vt 0.593500 0.824300
vt 0.621100 0.890500
vt 0.550100 0.752300
vt 0.566200 0.833400
vt 0.611000 0.900800
vt 0.566200 0.671200
vt 0.583600 0.330000
vt 0.572400 0.334800
vt 0.554900 0.251100
vt 0.567400 0.251100
vt 0.583600 0.172300
vt 0.598100 0.176100
vt 0.583100 0.251100
vt 0.572400 0.167400
vt 0.598100 0.326200
vt 0.611000 0.603800
vt 0.682100 0.574100
vt 0.678600 0.559100
vt 0.627500 0.394700
vt 0.619000 0.403500
vt 0.688200 0.449000
vt 0.692700 0.437600
vt 0.637200 0.384700
vt 0.696100 0.423000
vt 0.707400 0.127800
vt 0.703500 0.183100
vt 0.664100 0.143700
vt 0.648000 0.186900
vt 0.592100 0.251100
vt 0.606200 0.179600
vt 0.638100 0.251100
vt 0.606200 0.322700
vt 0.648000 0.315400
vt 0.697900 0.251100
vt 0.703500 0.319200
vt 0.771600 0.251100
vt 0.771600 0.324600
vt 0.664100 0.358600
vt 0.707400 0.374500
vt 0.643400 0.378500
vt 0.699500 0.415000
vt 0.771600 0.428700
vt 0.771600 0.384100
vt 0.843600 0.415000
vt 0.835700 0.374500
vt 0.899700 0.378500
vt 0.879100 0.358600
vt 0.839700 0.319200
vt 0.895200 0.315400
vt 0.936900 0.322700
vt 0.771600 0.437300
vt 0.847000 0.423000
vt 0.905900 0.384700
vt 0.845200 0.251100
vt 0.771600 0.177700
vt 0.771600 0.118200
vt 0.839700 0.183100
vt 0.879100 0.143700
vt 0.895200 0.186900
vt 0.835700 0.127800
vt 0.843600 0.087300
vt 0.771600 0.073600
vt 0.847000 0.079300
vt 0.771600 0.064900
vt 0.771600 0.049400
vt 0.850500 0.064700
vt 0.692700 0.064700
vt 0.696100 0.079300
vt 0.699500 0.087300
vt 0.899700 0.123800
vt 0.905900 0.117600
vt 0.643400 0.123800
vt 0.936900 0.179600
vt 0.951100 0.251100
vt 0.905100 0.251100
vt 0.960000 0.251100
vt 0.945000 0.326200
vt 0.945000 0.176100
vt 0.760300 0.572600
vt 0.760300 0.559200
vt 0.838400 0.574100
vt 0.842000 0.559100
vt 0.760300 0.543100
vt 0.771600 0.465100
vt 0.771600 0.452900
vt 0.854900 0.449000
vt 0.850500 0.437600
vt 0.924100 0.403500
vt 0.915700 0.394700
vt 0.970800 0.334800
vt 0.959500 0.330000
vt 0.975800 0.251100
vt 0.988300 0.251100
vt 0.970800 0.167400
vt 0.959500 0.172300
vt 0.915700 0.107600
vt 0.924100 0.098700
vt 0.954400 0.671200
vt 0.970400 0.752300
vt 0.909600 0.603800
vt 0.899500 0.614100
vt 0.954400 0.833400
vt 0.627500 0.107600
vt 0.619000 0.098800
vt 0.688200 0.053300
vt 0.771600 0.037200
vt 0.678600 0.945500
vt 0.637200 0.117600
vt 0.854900 0.053300
f 1/1/1 2/2/2 3/3/3
f 2/2/2 4/4/4 3/3/3
f 5/5/5 4/4/4 2/2/2
f 5/5/5 2/2/2 6/6/6
f 7/7/7 5/5/5 6/6/6
f 7/7/7 6/6/6 8/8/8
f 9/9/9 10/10/10 7/7/7
f 9/9/9 7/7/7 8/8/8
f 11/11/11 12/12/12 5/5/5
f 11/11/11 5/5/5 7/7/7
f 13/13/13 4/4/4 12/12/12
f 4/4/4 5/5/5 12/12/12
f 14/14/14 13/13/13 12/12/12
f 14/14/14 12/12/12 15/15/15
f 12/12/12 11/11/11 16/16/16
f 12/12/12 16/16/16 15/15/15
f 17/17/17 18/18/18 16/16/16
f 17/17/17 16/16/16 19/19/19
f 19/19/19 20/20/20 21/21/21
f 19/19/19 21/21/21 17/17/17
f 21/21/21 20/20/20 22/22/22
f 20/20/20 23/23/23 22/22/22
f 24/24/24 17/17/17 22/22/22
f 17/17/17 21/21/21 22/22/22
f 20/20/20 19/19/19 25/25/25
f 20/20/20 25/25/25 26/26/26
f 11/11/11 7/7/7 10/10/10
f 11/11/11 10/10/10 25/25/25
f 11/11/11 25/25/25 19/19/19
f 11/11/11 19/19/19 16/16/16
f 26/26/26 25/25/25 27/27/27
f 25/25/25 10/10/10 27/27/27
f 24/24/24 28/28/28 18/18/18
f 24/24/24 18/18/18 17/17/17
f 29/29/29 30/30/30 31/31/31
f 29/29/29 31/31/31 28/28/28
f 28/28/28 24/24/32 29/29/29
f 24/24/32 32/32/33 29/29/29
f 18/18/18 28/28/28 31/31/31
f 18/18/18 31/31/31 33/33/34
f 16/16/16 18/18/18 33/33/34
f 16/16/16 33/33/34 15/15/15
f 33/33/34 34/34/35 15/15/15
f 34/34/35 14/14/14 15/15/15
f 13/13/13 14/14/14 35/35/36
f 14/14/14 36/36/37 35/35/36
f 37/37/38 35/35/36 38/38/39
f 35/35/36 36/36/37 38/38/39
f 37/37/38 38/38/39 39/39/40
f 38/38/39 40/40/41 39/39/40
f 41/41/42 40/40/41 38/38/39
f 41/41/42 38/38/39 42/42/43
f 42/42/43 38/38/39 36/36/37
f 42/42/43 36/36/37 43/43/44
f 35/35/36 3/3/3 13/13/13
f 3/3/3 4/4/4 13/13/13
f 37/37/38 44/44/45 3/3/3
f 37/37/38 3/3/3 35/35/36
f 36/36/37 14/14/14 43/43/44
f 14/14/14 34/34/35 43/43/44
f 33/33/34 31/31/31 43/43/44
f 33/33/34 43/43/44 34/34/35
f 27/27/27 10/10/10 45/45/46
f 10/10/10 9/9/9 45/45/46
f 46/46/47 47/47/48 27/27/27
f 46/46/47 27/27/27 45/45/46
f 48/48/49 49/49/50 46/46/47
f 48/48/49 46/46/47 50/50/51
f 46/46/47 45/45/46 50/50/51
f 45/45/46 9/9/9 50/50/51
f 51/51/52 48/48/49 50/50/51
f 51/51/52 50/50/51 52/52/53
f 50/50/51 9/9/9 52/52/53
f 9/9/9 8/8/8 52/52/53
f 51/51/52 52/52/53 53/53/54
f 52/52/53 54/54/55 53/53/54
f 55/55/56 53/53/54 54/54/55
f 55/55/56 54/54/55 1/1/1
f 54/54/55 6/6/6 1/1/1
f 6/6/6 2/2/2 1/1/1
f 3/3/3 44/44/45 55/55/56
f 3/3/3 55/55/56 1/1/1
f 56/56/57 51/51/52 57/57/58
f 51/51/52 53/53/54 57/57/58
f 58/58/59 57/57/58 53/53/54
f 58/58/59 53/53/54 55/55/56
f 54/54/55 52/52/53 8/8/8
f 54/54/55 8/8/8 6/6/6
f 59/59/60 48/48/49 56/56/57
f 48/48/49 51/51/52 56/56/57
f 60/60/61 59/61/60 56/62/57
f 60/60/61 56/62/57 61/63/62
f 61/63/62 62/64/63 63/65/64
f 61/63/62 63/65/64 64/66/65
f 62/64/63 61/63/62 57/67/66
f 61/63/62 56/62/57 57/67/58
f 64/66/65 65/68/67 61/63/62
f 65/68/67 60/60/61 61/63/62
f 59/59/60 66/69/68 49/49/50
f 59/59/60 49/49/50 48/48/49
f 67/70/69 49/49/50 68/71/70
f 49/49/50 66/69/68 68/71/70
f 49/49/50 67/70/69 47/47/48
f 49/49/50 47/47/48 46/46/47
f 69/72/71 66/73/68 59/61/60
f 69/72/71 59/61/60 60/60/61
f 68/74/70 66/73/68 70/75/72
f 66/73/68 69/72/71 70/75/72
f 71/76/73 72/77/74 69/72/71
f 72/77/74 70/75/72 69/72/71
f 71/76/73 69/72/71 60/60/61
f 71/76/73 60/60/61 65/68/67
f 73/78/75 74/79/76 75/80/77
f 74/79/76 76/81/78 75/80/77
f 77/82/79 78/83/80 79/84/81
f 78/83/80 76/81/78 79/84/81
f 77/82/79 79/84/81 80/85/82
f 79/84/81 81/86/83 80/85/82
f 81/86/83 79/84/81 82/87/84
f 81/86/83 82/87/84 83/88/85
f 84/89/86 85/90/87 83/88/85
f 84/89/86 83/88/85 82/87/84
f 86/91/88 81/86/83 83/88/85
f 86/91/88 83/88/85 87/92/89
f 86/91/88 87/92/89 88/93/90
f 87/92/89 89/94/91 88/93/90
f 89/94/91 87/92/89 90/95/92
f 87/92/89 91/96/93 90/95/92
f 92/97/94 90/95/92 91/96/93
f 92/97/94 91/96/93 93/98/95
f 94/99/96 92/97/94 93/98/95
f 94/99/96 93/98/95 95/100/97
f 93/98/95 96/101/98 95/100/97
f 96/101/98 97/102/99 95/100/97
f 98/103/100 94/99/96 95/100/97
f 98/103/100 95/100/97 97/102/99
f 99/104/101 90/95/92 100/105/102
f 90/95/92 92/97/94 100/105/102
f 100/105/102 92/97/94 101/106/103
f 92/97/94 94/99/96 101/106/103
f 96/101/98 93/98/95 85/90/87
f 93/98/95 91/96/93 85/90/87
f 85/90/87 84/89/86 102/107/104
f 85/90/87 102/107/104 96/101/98
f 91/96/93 87/92/89 85/90/87
f 87/92/89 83/88/85 85/90/87
f 72/77/74 71/76/73 88/93/90
f 72/77/74 88/93/90 89/94/91
f 88/93/90 71/76/73 65/68/67
f 88/93/90 65/68/67 80/85/82
f 65/68/67 64/66/65 77/82/79
f 65/68/67 77/82/79 80/85/82
f 64/66/65 63/65/64 78/83/80
f 64/66/65 78/83/80 77/82/79
f 88/93/90 80/85/82 81/86/83
f 88/93/90 81/86/83 86/91/88
f 72/77/74 89/94/91 99/104/101
f 89/94/91 90/95/92 99/104/101
f 103/108/105 84/89/86 82/87/84
f 103/108/105 82/87/84 74/79/76
f 74/79/76 82/87/84 76/81/78
f 82/87/84 79/84/81 76/81/78
f 73/78/75 104/109/106 103/108/105
f 73/78/75 103/108/105 74/79/76
f 105/110/107 102/107/104 84/89/86
f 105/110/107 84/89/86 103/108/105
f 106/111/108 107/112/109 105/110/107
f 106/111/108 105/110/107 108/113/110
f 108/113/110 104/109/106 109/114/111
f 104/109/106 110/115/112 109/114/111
f 111/116/113 109/114/111 112/117/114
f 109/114/111 110/115/112 112/117/114
f 113/118/115 114/119/116 111/116/113
f 113/118/115 111/116/113 112/117/114
f 113/118/115 112/117/114 115/120/117
f 112/117/114 116/121/118 115/120/117
f 112/117/114 110/115/112 116/121/118
f 110/115/112 117/122/119 116/121/118
f 118/123/120 106/111/108 109/114/111
f 106/111/108 108/113/110 109/114/111
f 119/124/121 118/123/120 111/116/113
f 118/123/120 109/114/111 111/116/113
f 104/109/106 73/78/75 110/115/112
f 73/78/75 117/122/119 110/115/112
f 104/109/106 108/113/110 103/108/105
f 108/113/110 105/110/107 103/108/105
f 117/122/119 73/78/75 120/125/122
f 73/78/75 75/80/77 120/125/122
f 121/126/123 122/127/124 123/128/125
f 121/126/123 123/128/125 107/112/109
f 123/128/125 122/127/124 98/103/100
f 123/128/125 98/103/100 97/102/99
f 124/129/126 125/130/127 98/103/100
f 124/129/126 98/103/100 122/127/124
f 126/131/128 124/129/126 122/127/124
f 126/131/128 122/127/124 121/126/123
f 102/107/104 105/110/107 107/112/109
f 102/107/104 107/112/109 123/128/125
f 102/107/104 123/128/125 97/102/99
f 102/107/104 97/102/99 96/101/98
f 106/111/108 118/123/120 121/126/123
f 106/111/108 121/126/123 107/112/109
f 78/83/80 120/125/122 75/80/77
f 78/83/80 75/80/77 76/81/78
f 23/23/23 20/20/20 127/132/129
f 20/20/20 26/26/26 127/132/129
f 67/70/69 128/133/130 127/132/129
f 67/70/69 127/132/129 47/47/48
f 129/134/131 23/23/23 128/133/130
f 23/23/23 127/132/129 128/133/130
f 130/135/132 129/134/131 131/136/133
f 129/134/131 128/133/130 131/136/133
f 131/137/133 132/138/134 130/139/132
f 132/138/134 133/140/135 130/139/132
f 134/141/136 130/139/132 133/140/135
f 134/141/136 133/140/135 135/142/137
f 134/141/136 135/142/137 136/143/138
f 135/142/137 137/144/139 136/143/138
f 137/144/139 125/130/127 138/145/140
f 125/130/127 124/129/126 138/145/140
f 136/143/138 137/144/139 139/146/141
f 137/144/139 138/145/140 139/146/141
f 140/147/142 139/146/141 138/145/140
f 140/147/142 138/145/140 141/148/143
f 119/124/121 142/149/144 141/148/143
f 119/124/121 141/148/143 126/131/128
f 124/129/126 126/131/128 138/145/140
f 126/131/128 141/148/143 138/145/140
f 142/149/144 41/150/42 140/147/142
f 142/149/144 140/147/142 141/148/143
f 136/151/138 139/152/141 29/29/29
f 136/151/138 29/29/29 32/32/33
f 136/151/138 32/32/33 134/153/136
f 32/32/33 143/154/145 134/153/136
f 139/152/141 140/155/142 30/30/30
f 139/152/141 30/30/30 29/29/29
f 101/106/103 125/130/127 135/142/137
f 125/130/127 137/144/139 135/142/137
f 135/142/146 133/140/135 100/105/102
f 135/142/137 100/105/102 101/106/103
f 130/135/132 134/153/136 143/154/145
f 130/135/132 143/154/145 129/134/131
f 133/140/135 132/138/134 99/104/101
f 133/140/135 99/104/101 100/105/102
f 131/137/133 68/74/70 132/138/134
f 68/74/70 70/75/72 132/138/134
f 72/77/74 99/104/101 70/75/72
f 99/104/101 132/138/134 70/75/72
f 68/71/70 131/136/133 128/133/130
f 68/71/70 128/133/130 67/70/69
f 129/134/131 143/154/145 22/22/22
f 129/134/131 22/22/22 23/23/23
f 47/47/48 127/132/129 26/26/26
f 47/47/48 26/26/26 27/27/27
f 144/156/147 62/64/63 57/67/66
f 144/156/147 57/67/66 58/157/59
f 58/157/59 145/158/148 115/120/117
f 58/157/59 115/120/117 144/156/147
f 115/120/117 145/158/148 113/118/115
f 145/158/148 39/159/40 113/118/115
f 37/37/38 39/39/40 145/160/148
f 37/37/38 145/160/148 44/44/45
f 44/44/45 145/160/148 58/58/59
f 44/44/45 58/58/59 55/55/56
f 62/64/63 144/156/147 146/161/149
f 62/64/63 146/161/149 63/65/64
f 146/161/149 120/125/122 63/65/64
f 120/125/122 78/83/80 63/65/64
f 120/125/122 146/161/149 116/121/118
f 120/125/122 116/121/118 117/122/119
f 144/156/147 115/120/117 116/121/118
f 144/156/147 116/121/118 146/161/149
f 119/124/121 126/131/128 121/126/123
f 119/124/121 121/126/123 118/123/120
f 142/149/144 119/124/121 114/119/116
f 119/124/121 111/116/113 114/119/116
f 31/31/31 30/30/30 42/42/43
f 31/31/31 42/42/43 43/43/44
f 30/30/30 140/155/142 41/41/42
f 30/30/30 41/41/42 42/42/43
f 113/118/115 39/159/40 40/162/41
f 113/118/115 40/162/41 114/119/116
f 142/149/144 114/119/116 41/150/42
f 114/119/116 40/162/41 41/150/42
f 24/24/32 22/22/22 32/32/33
f 22/22/22 143/154/145 32/32/33
f 125/130/150 101/106/103 94/99/96
f 125/130/150 94/99/96 98/103/100
