# This file uses centimeters as units for non-parametric coordinates.

mtllib CatwalkTemp.mtl
g default
v -5.828197 -5.094208 0.000000
v 6.419108 -5.094208 -0.000076
v -5.828197 -5.094208 12.247158
v 6.419104 -5.094208 12.247231
vt 0.021940 0.975966
vt 0.021935 0.024034
vt 0.890726 0.024034
vt 0.890721 0.975966
vn 0.000000 1.000000 -0.000000
vn 0.000000 1.000000 -0.000000
vn 0.000000 1.000000 -0.000000
vn 0.000000 1.000000 -0.000000
s 1
g SM_floor
usemtl SM_floorSG5
f 4/2/1 1/4/2 3/1/3
f 1/4/2 4/2/1 2/3/4
